<svg xmlns="http://www.w3.org/2000/svg" width="95.939" height="95.939" viewBox="0 0 95.939 95.939"><path fill="#e3544a" d="M62.819 47.97l32.533-32.534c.781-.781.781-2.047 0-2.828l-12.019-12.022c-.375-.375-.885-.586-1.414-.586-.53 0-1.039.211-1.414.586l-32.535 32.535-32.535-32.535c-.75-.75-2.078-.75-2.828 0l-12.02 12.022c-.781.781-.781 2.047 0 2.828l32.534 32.534-32.534 32.534c-.781.781-.781 2.047 0 2.828l12.02 12.021c.375.375.884.586 1.414.586.53 0 1.039-.211 1.414-.586l32.535-32.535 32.535 32.535c.375.375.884.586 1.414.586.529 0 1.039-.211 1.414-.586l12.02-12.021c.781-.781.781-2.048 0-2.828l-32.534-32.534z"/></svg>
