<svg width="16" height="16" viewBox="0 0 16 16" xmlns="http://www.w3.org/2000/svg"><path d="M7.876 0c-4.35 0-7.876 3.525-7.876 7.876 0 4.349 3.526 7.876 7.876 7.876 4.35 0 7.876-3.526 7.876-7.876-.001-4.351-3.526-7.876-7.876-7.876zm0 14.467c-3.642 0-6.593-2.95-6.593-6.591 0-3.642 2.951-6.593 6.593-6.593 3.641 0 6.591 2.952 6.591 6.593s-2.951 6.591-6.591 6.591zm-.204-4.154c-.714 0-1.221.507-1.221 1.248 0 .713.494 1.247 1.221 1.247.754 0 1.234-.535 1.234-1.247-.014-.741-.495-1.248-1.234-1.248zm.19-7.064c-.973 0-1.781.274-2.29.562l.467 1.495c.356-.246.905-.412 1.357-.412.685.014 1.002.343 1.002.823 0 .453-.357.905-.797 1.441-.617.727-.85 1.441-.809 2.14l.013.357h1.824v-.247c-.013-.618.206-1.153.699-1.715.522-.576 1.179-1.262 1.179-2.305 0-1.139-.835-2.139-2.647-2.139z"/></svg>