<svg width="16" height="16" viewBox="0 0 16 16" xmlns="http://www.w3.org/2000/svg"><path d="M8.231 9.648l-.43-.954c.41-.301.762-.675 1.037-1.102l.979.371c.187.071.396-.023.467-.21l.36-.949c.034-.09.031-.19-.008-.277-.039-.088-.112-.156-.202-.19l-.979-.371c.077-.502.061-1.015-.046-1.512l.954-.43c.088-.039.156-.112.19-.202.034-.09.031-.19-.008-.277l-.417-.926c-.082-.182-.297-.264-.479-.182l-.954.43c-.301-.41-.675-.762-1.102-1.037l.371-.979c.071-.187-.023-.396-.21-.467l-.949-.36c-.09-.034-.189-.031-.277.008-.088.039-.156.112-.19.202l-.371.979c-.503-.078-1.017-.062-1.512.046l-.43-.954c-.039-.088-.112-.156-.202-.19-.09-.034-.19-.031-.277.008l-.926.417c-.182.082-.264.297-.182.479l.43.954c-.41.301-.762.675-1.037 1.102l-.979-.371c-.09-.034-.189-.031-.277.008-.088.039-.156.112-.19.202l-.36.949c-.071.187.023.396.21.467l.979.371c-.077.502-.061 1.016.046 1.512l-.954.43c-.088.039-.156.112-.19.202-.034.09-.031.19.008.277l.417.926c.039.088.112.156.202.19.09.034.19.031.277-.008l.954-.43c.301.41.675.762 1.102 1.037l-.371.979c-.071.187.023.396.21.467l.949.36.128.023.149-.032c.088-.039.156-.112.19-.202l.371-.979c.503.077 1.017.062 1.512-.046l.43.954c.039.088.112.156.202.19.09.034.19.031.277-.008l.926-.417c.183-.082.264-.297.182-.479zm-.761-3.505c-.334.883-1.193 1.476-2.137 1.476-.276 0-.548-.05-.809-.149-.571-.216-1.023-.642-1.274-1.198-.251-.556-.27-1.177-.053-1.748.334-.883 1.193-1.476 2.137-1.476.276 0 .548.05.809.149.571.216 1.023.642 1.274 1.198.251.557.27 1.177.053 1.748zm8.442 5.626c-.06-.066-.144-.105-.233-.109l-.633-.027c-.058-.299-.164-.588-.312-.854l.467-.429c.137-.126.146-.338.02-.475l-.464-.505c-.06-.066-.144-.105-.233-.109-.089-.003-.176.028-.242.088l-.467.429c-.253-.17-.531-.3-.824-.384l.027-.633c.008-.186-.136-.342-.322-.35l-.685-.029c-.185-.007-.342.136-.35.322l-.027.633c-.299.058-.588.164-.854.312l-.429-.467c-.06-.066-.144-.105-.233-.109-.089-.004-.176.028-.242.088l-.505.464c-.137.126-.146.338-.02.475l.429.467c-.17.253-.3.531-.384.824l-.633-.027c-.185-.007-.342.136-.35.322l-.029.685c-.004.089.028.176.088.242s.144.105.233.109l.633.027c.058.299.164.588.312.854l-.467.429c-.066.06-.105.144-.109.233-.004.089.028.176.088.242l.464.505c.06.066.144.105.233.109.089.004.176-.028.242-.088l.467-.429c.253.17.531.3.824.384l-.027.633c-.008.186.136.342.322.35l.685.029h.014c.084 0 .165-.031.227-.089.066-.06.105-.144.109-.233l.027-.633c.299-.058.588-.164.854-.312l.429.467c.06.066.144.105.233.109.089.004.176-.028.242-.088l.505-.464c.137-.126.146-.338.02-.475l-.429-.467c.17-.253.3-.531.384-.824l.633.027c.185.007.342-.136.35-.322l.029-.685c.004-.089-.028-.176-.088-.242zm-3.786 1.944c-.839-.036-1.493-.748-1.457-1.588.035-.818.703-1.459 1.521-1.459l.067.001c.839.036 1.493.748 1.457 1.588-.036.84-.741 1.493-1.588 1.457z"/></svg>